<?xml version="1.0" standalone="no"?>
<!DOCTYPE svg PUBLIC "-//W3C//DTD SVG 20010904//EN"
 "http://www.w3.org/TR/2001/REC-SVG-20010904/DTD/svg10.dtd">
<svg version="1.0" xmlns="http://www.w3.org/2000/svg"
 width="1406.000000pt" height="2233.000000pt" viewBox="0 0 1406.000000 2233.000000"
 preserveAspectRatio="xMidYMid meet">

<g transform="translate(0.000000,2233.000000) scale(0.100000,-0.100000)"
fill="#000000" stroke="none">
<path d="M1361 21810 c-45 -5 -68 -13 -78 -26 -9 -13 -13 -58 -13 -163 0 -80
-3 -345 -7 -588 -5 -351 -3 -445 7 -458 10 -12 37 -15 139 -15 69 0 132 4 139
8 23 15 32 77 32 232 0 127 3 160 16 179 l16 22 442 -5 c242 -3 628 -9 856
-12 228 -3 433 -10 455 -15 22 -6 81 -28 130 -50 50 -22 115 -51 145 -64 30
-13 87 -38 125 -56 39 -17 124 -53 190 -79 130 -52 379 -156 515 -215 47 -20
110 -47 140 -60 30 -12 75 -32 100 -43 25 -11 92 -40 150 -63 58 -23 132 -53
165 -66 33 -13 85 -34 115 -47 139 -60 197 -84 222 -90 27 -6 267 78 482 168
112 48 177 74 436 176 124 49 338 135 475 190 138 56 295 118 350 139 55 21
148 57 208 80 59 22 115 41 125 41 9 0 46 -14 82 -31 36 -17 88 -39 115 -49
28 -10 102 -42 165 -70 63 -29 162 -71 220 -95 58 -23 155 -65 215 -92 61 -28
151 -67 200 -87 50 -20 128 -54 175 -76 85 -39 302 -135 435 -191 39 -17 95
-41 125 -54 195 -85 287 -117 313 -109 26 7 309 117 567 219 102 41 214 85
250 99 98 37 342 134 555 221 105 43 222 90 260 105 39 15 140 57 227 94 l156
66 604 0 c468 0 608 -3 621 -12 16 -12 17 -72 15 -860 -3 -955 4 -875 -83
-888 -25 -4 -48 -3 -51 1 -2 4 -20 1 -40 -7 -19 -8 -38 -12 -43 -10 -9 6 -36
7 -221 6 -80 0 -253 -1 -385 -1 -219 0 -382 -4 -395 -9 -3 -1 -35 -1 -71 0
-140 3 -280 -44 -433 -143 -113 -75 -167 -126 -332 -318 -79 -92 -165 -185
-191 -208 -81 -69 -233 -144 -308 -151 -58 -6 -194 -2 -235 6 -45 9 -133 56
-190 103 -65 52 -188 180 -216 223 -34 54 -277 298 -296 298 -9 0 -18 5 -20
11 -8 25 -249 147 -323 164 -98 23 -207 31 -300 25 -115 -9 -166 -24 -285 -81
-161 -79 -240 -145 -400 -339 -183 -220 -276 -303 -392 -349 -31 -13 -61 -23
-65 -23 -4 0 -16 -4 -26 -10 -39 -20 -297 -9 -297 13 0 5 -9 9 -20 9 -19 0
-90 29 -100 41 -3 3 -25 19 -50 34 -69 43 -258 240 -284 296 -5 10 -15 19 -22
19 -7 0 -19 11 -26 24 -16 31 -94 113 -139 147 -19 15 -50 41 -69 58 -40 36
-161 105 -205 115 -16 4 -48 16 -70 26 -93 42 -375 49 -495 12 -125 -39 -237
-89 -260 -117 -7 -8 -17 -15 -22 -15 -5 0 -40 -24 -77 -54 -67 -54 -138 -129
-294 -314 -126 -150 -242 -234 -368 -267 -114 -31 -293 -11 -392 42 -48 27
-186 161 -274 268 -43 52 -82 91 -242 245 -38 35 -151 121 -178 133 -13 6 -23
13 -23 17 0 7 -59 34 -97 45 -13 4 -23 11 -23 16 0 5 -10 9 -23 9 -12 0 -55 9
-96 20 -81 23 -162 27 -691 35 -173 3 -445 7 -605 10 -159 2 -459 7 -665 10
-206 4 -386 7 -400 8 l-25 2 0 -3755 0 -3755 115 -6 c114 -7 581 -19 1490 -38
624 -14 1656 -18 1667 -8 4 5 10 1050 13 2323 4 2043 7 2316 20 2324 19 12 92
12 250 0 69 -6 340 -14 602 -20 567 -11 739 -19 756 -32 6 -6 12 -20 12 -32 1
-49 -5 -48 371 -52 380 -4 632 -10 961 -20 228 -8 231 -7 242 51 4 19 12 37
18 41 13 8 1558 7 1700 -2 l106 -6 16 30 15 30 208 -5 c115 -2 300 -8 413 -13
113 -4 297 -8 410 -9 113 -1 320 -7 460 -14 155 -7 593 -12 1114 -12 783 0
860 -1 869 -16 7 -12 5 -54 -6 -142 -59 -438 -286 -912 -596 -1239 -129 -137
-260 -241 -521 -415 -164 -109 -156 -106 -310 -109 -74 -2 -268 -5 -430 -9
-162 -3 -448 -8 -635 -10 -187 -3 -448 -8 -580 -10 -132 -3 -247 -6 -255 -6
-25 0 -981 0 -1520 1 -278 0 -532 2 -565 5 -33 2 -323 7 -645 10 -322 4 -597
8 -611 10 -14 2 -200 6 -415 10 -214 4 -411 8 -439 9 l-50 1 -3 -957 c-1 -526
1 -980 6 -1010 l7 -53 80 -7 c259 -21 454 -28 1010 -33 341 -3 655 -10 697
-16 246 -32 492 -198 635 -427 94 -150 141 -316 150 -525 5 -104 10 -140 21
-150 20 -16 1340 -15 3040 3 1050 11 1215 11 1228 -2 12 -12 14 -124 14 -738
1 -643 -1 -725 -15 -739 -25 -25 -449 -32 -2045 -35 -581 -1 -576 -1 -756 -61
-79 -26 -237 -102 -288 -138 -140 -98 -254 -211 -338 -335 -54 -80 -76 -96
-92 -68 -79 132 -158 224 -275 318 -135 109 -274 182 -433 228 -159 45 -232
54 -362 41 -283 -28 -517 -133 -728 -328 -26 -23 -52 -43 -59 -43 -8 0 -10 85
-6 326 8 443 -9 564 -103 759 -120 247 -325 461 -550 573 -180 88 -406 111
-595 60 -178 -49 -256 -84 -380 -173 -161 -114 -270 -248 -361 -439 -61 -130
-94 -235 -174 -557 -78 -312 -86 -339 -106 -339 -8 0 -40 20 -71 45 -128 100
-186 137 -378 242 -529 288 -1045 499 -1425 583 -210 45 -291 55 -470 54 -370
-1 -626 -89 -880 -302 -286 -239 -475 -528 -599 -913 -44 -137 -58 -200 -75
-337 -46 -361 16 -637 199 -883 133 -180 362 -345 585 -422 231 -79 375 -101
670 -102 354 0 591 36 941 146 326 101 706 292 954 478 165 124 350 305 472
461 43 56 147 223 205 329 9 17 22 31 28 31 26 0 298 -301 420 -465 298 -401
467 -694 640 -1110 140 -336 226 -609 316 -998 50 -218 55 -250 42 -263 -13
-13 -36 -6 -189 61 -179 79 -248 107 -599 243 -564 219 -1088 359 -1510 404
-191 20 -694 17 -843 -5 -445 -67 -765 -199 -1092 -454 -692 -538 -1189 -1822
-1104 -2850 22 -266 83 -602 146 -796 212 -662 668 -1177 1267 -1431 186 -79
477 -151 717 -176 218 -23 496 -9 819 40 172 26 507 124 694 202 520 215 949
524 1250 898 165 205 278 384 400 635 241 492 362 940 426 1575 24 239 35 631
23 845 -12 218 -13 216 80 168 88 -45 575 -322 697 -396 63 -38 164 -99 224
-135 59 -36 110 -72 113 -79 3 -8 -34 -73 -82 -146 -134 -201 -157 -238 -273
-452 -232 -426 -421 -935 -531 -1425 -65 -290 -79 -440 -77 -785 2 -208 6
-254 25 -345 95 -436 276 -706 573 -853 165 -81 266 -112 469 -142 562 -81
1366 138 1904 519 359 254 555 526 626 871 18 85 20 124 16 260 -6 178 -28
287 -91 458 -120 319 -433 744 -826 1121 -127 122 -367 336 -456 406 -17 14
-73 59 -125 100 -134 108 -436 332 -551 409 -74 50 -98 71 -98 87 0 15 52 77
154 186 85 89 161 168 169 173 8 6 79 64 158 130 369 309 770 546 1234 730
130 51 300 115 335 125 14 5 99 31 190 60 91 29 289 84 440 123 l275 70 150 1
c139 1 156 -1 228 -27 43 -15 106 -45 141 -67 168 -106 317 -339 387 -605 30
-115 32 -131 36 -357 l5 -236 -26 -17 c-24 -16 -76 -17 -674 -15 -356 2 -659
2 -674 1 l-28 -1 0 -159 0 -159 32 -6 c17 -3 331 -6 697 -6 365 0 668 -3 673
-8 4 -4 -9 -35 -29 -67 -20 -33 -91 -148 -158 -255 -67 -107 -150 -242 -185
-300 -83 -139 -296 -484 -495 -805 -214 -344 -355 -579 -355 -592 0 -19 92
-23 657 -23 490 -1 565 -3 578 -16 13 -13 15 -61 15 -319 0 -167 5 -372 11
-456 8 -111 7 -155 -1 -163 -7 -7 -105 -12 -302 -14 l-290 -3 4 -155 c2 -84 8
-158 13 -163 16 -16 202 -21 852 -23 462 -2 625 0 634 9 15 15 27 83 35 202 9
151 28 143 -309 138 l-271 -4 -24 24 c-13 13 -21 27 -18 32 3 5 1 44 -4 87 -5
44 -11 242 -12 442 -3 313 -1 364 12 372 8 5 94 10 190 11 96 1 220 3 275 4
55 1 259 3 453 4 213 0 352 5 352 10 0 6 -51 83 -113 173 -63 90 -144 210
-182 268 -148 228 -244 369 -330 486 -164 222 -234 320 -304 425 -62 95 -168
249 -189 274 -22 27 -139 206 -164 252 -36 65 -38 126 -5 147 18 11 116 15
512 20 270 3 540 6 602 6 152 0 148 -5 140 169 -4 93 -10 137 -19 143 -7 5
-287 8 -621 7 -513 -2 -610 0 -622 12 -10 10 -15 61 -19 184 -9 226 -14 292
-37 405 -41 210 -171 534 -263 655 -41 55 -161 160 -247 217 -276 182 -556
215 -979 116 -884 -206 -1624 -526 -2210 -956 -218 -160 -538 -457 -685 -636
-38 -46 -76 -87 -84 -91 -16 -6 -24 -2 -406 230 -143 86 -318 190 -390 230
-71 40 -155 87 -185 105 -46 27 -156 88 -353 194 -21 11 -39 29 -42 41 -2 11
-27 139 -55 285 -87 451 -180 783 -313 1110 -109 271 -158 382 -231 523 -216
420 -409 709 -691 1037 -105 122 -180 204 -288 314 -42 44 -77 84 -77 89 0 6
13 53 29 106 16 53 44 157 61 231 147 625 220 790 415 945 83 66 185 119 275
141 99 25 289 15 393 -21 87 -30 204 -102 278 -172 92 -86 169 -222 211 -373
20 -71 21 -97 19 -500 -1 -234 -4 -570 -7 -746 -4 -226 -2 -324 5 -328 6 -4
11 -40 11 -86 0 -110 25 -292 55 -393 58 -200 157 -362 322 -525 176 -173 329
-261 553 -318 61 -15 109 -19 260 -18 169 0 194 3 285 28 265 72 495 238 655
471 60 87 89 104 111 63 23 -43 127 -173 176 -219 181 -172 310 -244 561 -311
110 -30 127 -32 287 -32 152 0 180 3 268 27 501 135 847 549 898 1077 18 181
-1 324 -71 539 -58 177 -84 222 -212 380 -73 90 -82 116 -44 131 13 5 147 9
298 9 535 1 1544 12 1586 17 34 4 42 9 38 22 -3 9 -8 289 -12 622 -3 333 -7
643 -8 690 -2 47 -4 227 -5 400 -2 358 -4 388 -35 395 -44 11 -1356 11 -1586
0 -36 -1 -650 -6 -1365 -10 -1154 -6 -1302 -6 -1313 8 -7 8 -24 62 -38 118
-34 139 -66 226 -121 331 -46 87 -127 202 -190 268 -42 45 -79 118 -66 131 11
11 1347 14 1365 3 5 -4 66 -3 134 1 108 6 128 10 144 28 11 11 134 192 275
401 140 210 291 433 335 496 43 63 161 237 261 385 100 149 197 289 215 311
l33 42 383 6 c211 3 790 8 1288 11 847 5 951 7 1007 20 34 8 46 60 38 173 -4
73 -10 100 -22 110 -18 13 -88 14 -543 11 -124 0 -277 -3 -340 -4 -114 -4
-129 0 -130 32 0 12 29 41 145 142 256 225 518 597 638 907 153 395 221 759
200 1071 -5 86 -7 92 -27 92 -32 -1 -397 -1 -431 0 -16 1 -66 -5 -110 -13 -44
-8 -84 -12 -89 -9 -19 12 -666 20 -685 9 -7 -5 -18 -3 -24 3 -12 12 -69 15
-80 5 -3 -4 -35 -6 -69 -6 -35 0 -68 -4 -75 -10 -7 -5 -17 -7 -23 -3 -5 3 -81
6 -168 7 -92 0 -162 4 -169 10 -8 7 -18 7 -25 1 -17 -12 -138 -9 -163 4 -11 6
-60 11 -110 11 -49 0 -92 0 -95 1 -7 1 -297 10 -520 16 -91 2 -277 7 -415 11
-530 14 -495 15 -519 -12 -14 -16 -36 -26 -66 -30 -71 -9 -246 -6 -355 7 -107
12 -355 15 -445 6 -30 -4 -259 -7 -507 -8 -429 -1 -453 -2 -453 -19 0 -27 -33
-62 -61 -65 -13 -2 -28 -4 -34 -5 -5 -1 -12 -1 -15 0 -3 1 -145 3 -315 5 -305
3 -556 10 -705 22 -82 6 -271 5 -391 -2 -85 -5 -92 -2 -106 55 -7 27 -15 35
-34 37 -53 3 -461 13 -744 18 -165 2 -340 7 -390 10 -49 3 -139 7 -198 10 -60
3 -127 9 -150 15 -47 10 -137 5 -211 -11 -27 -7 -79 -9 -117 -6 -55 5 -68 3
-73 -9 -3 -9 -6 -484 -6 -1057 0 -573 -3 -1052 -6 -1064 -4 -13 -10 -23 -15
-23 -4 0 -43 44 -85 98 -77 97 -349 376 -434 445 -25 20 -59 44 -76 52 -17 8
-53 30 -80 48 -104 71 -384 183 -539 216 -27 6 -81 18 -120 27 -53 12 -137 17
-350 20 -249 3 -502 10 -695 19 -36 2 -100 4 -143 5 -55 2 -84 8 -98 19 -20
16 -21 21 -19 1721 0 938 4 1721 8 1740 10 45 38 58 115 55 84 -4 677 -14
1262 -20 264 -3 503 -8 530 -11 216 -22 361 -113 510 -318 131 -179 186 -245
260 -310 125 -108 179 -139 307 -175 62 -17 131 -37 153 -44 23 -7 96 -12 170
-12 186 1 307 38 470 148 107 72 156 119 288 277 167 198 271 301 339 334 153
75 389 70 541 -11 65 -35 226 -189 324 -311 172 -214 335 -345 500 -403 304
-108 545 -81 803 89 104 68 161 122 320 302 158 179 234 251 314 299 146 87
347 94 507 17 122 -59 183 -115 339 -311 103 -129 266 -283 363 -344 119 -73
185 -98 328 -122 107 -18 134 -19 215 -10 106 13 231 49 319 93 131 66 222
149 429 388 161 187 273 278 394 322 78 28 304 35 1082 35 339 -1 620 2 627 6
7 5 10 328 7 1159 -2 634 -3 1165 -4 1179 0 16 -7 30 -17 34 -10 3 -90 8 -177
11 -88 2 -161 6 -162 7 -3 3 -240 -2 -439 -8 -69 -2 -199 -5 -245 -6 -110 -1
-230 -8 -238 -13 -6 -3 -13 -2 -17 4 -4 6 -11 7 -17 4 -6 -4 -85 -8 -177 -9
-146 -2 -171 -5 -208 -24 -23 -11 -47 -21 -53 -21 -5 0 -29 -9 -53 -19 -23
-10 -103 -44 -177 -74 -74 -31 -149 -63 -165 -71 -17 -9 -37 -16 -46 -16 -8 0
-19 -4 -25 -9 -7 -8 -91 -43 -249 -105 -16 -6 -44 -19 -61 -28 -17 -10 -34
-15 -37 -12 -2 3 -31 -7 -63 -21 -33 -15 -78 -35 -102 -46 -23 -10 -51 -19
-60 -19 -10 0 -22 -4 -28 -9 -5 -4 -52 -25 -104 -46 -52 -20 -109 -43 -127
-51 -17 -8 -36 -14 -43 -14 -7 0 -24 -7 -38 -15 -15 -8 -56 -26 -92 -39 -116
-43 -304 -116 -337 -131 -40 -19 -37 -19 -97 9 -74 35 -123 56 -133 56 -4 0
-19 9 -33 20 -14 11 -37 20 -51 20 -14 0 -43 11 -63 25 -20 14 -39 25 -41 25
-2 0 -16 5 -32 12 -15 6 -37 13 -47 15 -11 2 -27 9 -35 16 -24 19 -71 38 -81
32 -5 -3 -31 8 -58 25 -27 16 -60 30 -74 30 -14 0 -33 8 -42 19 -9 10 -28 19
-41 19 -14 0 -41 12 -60 27 -20 15 -42 24 -50 21 -8 -3 -17 -1 -20 3 -2 5 -17
12 -32 16 -15 3 -53 22 -85 40 -32 19 -58 32 -58 29 0 -3 -10 2 -22 10 -12 9
-30 16 -39 16 -9 0 -19 6 -22 14 -3 7 -23 16 -44 19 -35 5 -87 24 -123 47 -15
9 -98 46 -135 60 -11 5 -42 18 -70 31 -27 13 -55 24 -60 24 -6 0 -33 12 -60
26 -28 15 -68 32 -90 39 -55 17 -107 41 -127 57 -9 8 -22 13 -30 11 -7 -1 -35
8 -61 21 -37 18 -54 21 -70 14 -43 -20 -150 -53 -155 -49 -2 3 -11 -1 -19 -9
-7 -8 -32 -19 -53 -25 -22 -6 -42 -15 -45 -20 -3 -6 -16 -10 -29 -10 -12 0
-26 -4 -31 -9 -8 -7 -268 -114 -285 -116 -3 -1 -22 -9 -44 -18 -21 -9 -44 -17
-50 -17 -7 0 -16 -4 -21 -8 -6 -5 -66 -30 -135 -57 -111 -42 -203 -79 -265
-106 -11 -5 -46 -18 -77 -29 -32 -12 -60 -26 -63 -31 -4 -5 -15 -9 -25 -9 -11
0 -34 -6 -52 -14 -49 -22 -72 -29 -81 -28 -4 1 -28 -9 -55 -22 -66 -34 -118
-56 -131 -56 -6 0 -19 -4 -29 -9 -9 -5 -48 -22 -87 -36 -38 -15 -75 -31 -81
-36 -7 -5 -23 -12 -35 -14 -13 -3 -33 -9 -44 -14 -11 -5 -27 -12 -35 -15 -8
-3 -30 -15 -49 -27 -24 -14 -37 -17 -44 -10 -6 6 -19 11 -28 11 -10 0 -50 15
-91 34 -40 18 -84 37 -98 41 -14 4 -34 14 -45 21 -11 8 -25 14 -33 14 -7 0
-32 9 -54 20 -23 11 -50 20 -59 20 -10 0 -21 5 -24 10 -3 6 -14 10 -24 10 -10
0 -26 9 -36 20 -10 11 -26 19 -34 18 -9 -1 -20 0 -26 3 -5 4 -28 12 -50 19
-22 7 -56 23 -75 35 -19 12 -53 28 -75 35 -22 7 -60 23 -84 36 -24 13 -51 24
-60 24 -9 0 -47 16 -85 35 -37 19 -75 35 -83 35 -8 0 -46 16 -84 35 -39 19
-77 35 -86 35 -9 0 -26 8 -37 18 -12 10 -48 26 -81 36 -33 10 -62 21 -65 25
-11 14 -150 72 -179 74 -17 1 -33 8 -36 15 -2 6 -13 12 -24 12 -11 0 -34 8
-53 17 -18 9 -42 21 -53 26 -146 74 -187 89 -254 93 -36 2 -271 6 -521 9 -250
4 -554 8 -675 10 -121 2 -291 5 -378 6 -134 2 -162 5 -180 20 -21 16 -22 27
-27 233 -4 173 -8 218 -20 230 -18 19 -112 26 -199 16z m59 -6760 c63 -5 275
-12 470 -15 485 -8 572 -16 745 -69 272 -82 490 -208 711 -411 145 -132 233
-250 334 -449 98 -194 162 -406 190 -636 16 -131 14 -1478 -3 -1503 -12 -18
-29 -19 -346 -17 -184 0 -337 3 -340 5 -4 2 -326 6 -716 10 -391 4 -723 8
-740 10 -16 3 -132 5 -258 5 -211 1 -228 3 -237 20 -7 12 -10 542 -10 1524 0
1354 2 1506 16 1520 18 18 30 19 184 6z m5060 -1090 c638 -13 2337 -16 2755
-6 358 9 830 13 883 7 25 -2 32 -8 32 -25 0 -26 9 -11 -249 -391 -115 -170
-266 -393 -335 -495 -68 -102 -157 -232 -196 -290 -40 -58 -99 -144 -132 -192
-46 -67 -67 -89 -93 -98 -36 -12 -334 -14 -870 -6 -176 3 -475 6 -665 7 l-345
2 -90 27 c-194 60 -198 60 -1350 75 -182 2 -338 7 -348 11 -18 7 -18 3 -18
209 0 1079 1 1154 16 1169 17 16 -11 16 1005 -4z m-4280 -3935 c160 -12 507
-112 810 -233 401 -160 581 -243 810 -375 226 -130 450 -291 450 -325 0 -21
-95 -211 -141 -283 -140 -217 -402 -466 -654 -621 -415 -256 -890 -415 -1344
-449 -167 -13 -388 -6 -513 16 -81 14 -269 68 -333 96 -151 65 -318 205 -387
324 -124 215 -145 480 -63 790 80 298 217 545 413 741 166 165 347 265 562
309 51 11 219 23 265 19 22 -2 78 -6 125 -9z m7564 -760 c313 -65 586 -338
672 -670 23 -92 25 -113 21 -250 -6 -179 -20 -242 -87 -380 -86 -177 -195
-296 -361 -396 -103 -61 -212 -96 -343 -110 -207 -21 -394 27 -585 151 -155
101 -271 254 -336 447 -47 139 -61 349 -32 494 54 270 246 521 496 649 50 25
195 67 276 80 74 11 180 5 279 -15z m-2058 -15 c311 -79 564 -335 643 -650
111 -440 -89 -879 -486 -1071 -141 -68 -350 -96 -493 -66 -593 123 -897 782
-613 1332 51 99 84 145 161 223 115 116 242 189 406 232 101 27 277 27 382 0z
m-4078 -2861 c423 -53 931 -184 1442 -372 76 -28 372 -154 480 -205 41 -19
147 -68 234 -108 88 -41 176 -85 196 -98 l36 -24 15 -168 c32 -383 12 -918
-52 -1324 -68 -437 -171 -772 -349 -1135 -182 -371 -416 -671 -725 -930 -353
-295 -855 -524 -1380 -629 -242 -49 -641 -60 -873 -26 -476 70 -890 292 -1186
634 -206 239 -355 552 -460 967 -60 236 -70 331 -70 654 0 327 8 409 73 728
139 683 498 1332 926 1672 77 61 231 153 340 203 218 98 502 164 805 186 108
8 394 -5 548 -25z m4253 -1891 c57 -39 116 -81 131 -92 14 -12 46 -34 69 -51
122 -86 554 -418 579 -445 3 -3 75 -67 160 -142 251 -221 488 -477 686 -743
243 -324 355 -706 283 -965 -48 -174 -125 -297 -283 -455 -550 -548 -1703
-822 -2271 -541 -199 98 -306 248 -384 536 -59 218 -50 652 20 995 31 150 83
350 123 466 54 162 160 446 197 529 60 134 237 483 294 580 105 177 257 400
275 400 9 0 63 -32 121 -72z m4008 -225 c-1 -21 2 -317 6 -658 7 -579 7 -622
-9 -638 -15 -15 -41 -17 -194 -18 -97 0 -222 -1 -277 -1 -55 0 -164 0 -242 1
-137 1 -143 2 -143 22 0 20 40 100 85 169 83 128 124 197 181 304 36 66 78
136 92 155 51 64 128 177 162 237 92 162 246 403 276 432 46 44 65 42 63 -5z
m468 -186 c56 -85 159 -230 229 -323 119 -158 217 -301 324 -475 25 -40 76
-120 114 -177 55 -82 67 -108 59 -121 -13 -21 -96 -25 -525 -29 -318 -3 -327
-3 -337 17 -7 13 -11 149 -10 405 0 212 -1 389 -4 393 -3 4 -8 101 -12 215 -7
221 -3 248 38 248 18 0 43 -31 124 -153z"/>
</g>
</svg>
