<?xml version="1.0" standalone="no"?>
<!DOCTYPE svg PUBLIC "-//W3C//DTD SVG 20010904//EN"
 "http://www.w3.org/TR/2001/REC-SVG-20010904/DTD/svg10.dtd">
<svg version="1.0" xmlns="http://www.w3.org/2000/svg"
 width="1575.000000pt" height="2283.000000pt" viewBox="0 0 1575.000000 2283.000000"
 preserveAspectRatio="xMidYMid meet">

<g transform="translate(0.000000,2283.000000) scale(0.100000,-0.100000)"
fill="#000000" stroke="none">
<path d="M4603 22823 c15 -2 39 -2 55 0 15 2 2 4 -28 4 -30 0 -43 -2 -27 -4z"/>
<path d="M5928 22823 c6 -2 18 -2 25 0 6 3 1 5 -13 5 -14 0 -19 -2 -12 -5z"/>
<path d="M6428 22823 c7 -3 16 -2 19 1 4 3 -2 6 -13 5 -11 0 -14 -3 -6 -6z"/>
<path d="M7186 22822 c-10 -16 2 -19 102 -21 61 -2 98 1 107 9 11 9 15 9 15 1
0 -7 16 -10 43 -9 23 1 74 -1 112 -5 52 -5 78 -3 100 7 l30 15 -45 0 c-25 1
-138 4 -251 7 -136 4 -209 2 -213 -4z"/>
<path d="M7735 22814 c-16 -8 -31 -17 -33 -18 -1 -2 32 -2 75 1 43 2 143 5
223 7 80 2 156 8 170 14 19 8 -28 11 -190 11 -176 1 -220 -2 -245 -15z"/>
<path d="M9013 22823 c15 -2 37 -2 50 0 12 2 0 4 -28 4 -27 0 -38 -2 -22 -4z"/>
<path d="M9108 22822 c12 -8 72 -4 72 4 0 2 -19 4 -42 4 -26 0 -38 -4 -30 -8z"/>
<path d="M9243 22823 c15 -2 37 -2 50 0 12 2 0 4 -28 4 -27 0 -38 -2 -22 -4z"/>
<path d="M9352 22820 c17 -11 53 -9 64 3 4 4 -13 7 -37 7 -33 -1 -40 -3 -27
-10z"/>
<path d="M9728 22823 c7 -3 16 -2 19 1 4 3 -2 6 -13 5 -11 0 -14 -3 -6 -6z"/>
<path d="M9813 22823 c9 -2 25 -2 35 0 9 3 1 5 -18 5 -19 0 -27 -2 -17 -5z"/>
<path d="M10218 22823 c6 -2 18 -2 25 0 6 3 1 5 -13 5 -14 0 -19 -2 -12 -5z"/>
<path d="M6878 22813 c7 -3 16 -2 19 1 4 3 -2 6 -13 5 -11 0 -14 -3 -6 -6z"/>
<path d="M6945 22810 c-3 -5 3 -10 14 -10 11 0 23 5 26 10 3 6 -3 10 -14 10
-11 0 -23 -4 -26 -10z"/>
<path d="M9561 22806 c-10 -12 -8 -13 8 -9 12 3 21 9 21 14 0 14 -16 11 -29
-5z"/>
<path d="M1891 19829 c-46 -15 -91 -35 -100 -43 -10 -9 -22 -16 -27 -16 -26 0
-135 -85 -189 -146 -95 -108 -128 -153 -173 -240 -93 -179 -124 -299 -157
-599 -2 -22 -1 -45 3 -52 4 -6 44 -14 90 -18 66 -6 82 -4 82 6 0 8 5 64 10
125 28 321 156 567 372 715 68 46 160 88 195 89 12 0 23 5 25 11 5 15 -34 199
-41 198 -3 -1 -44 -14 -90 -30z m-119 -201 c-9 -9 -12 -7 -12 12 0 19 3 21 12
12 9 -9 9 -15 0 -24z"/>
<path d="M2087 19852 c-15 -3 -17 -17 -17 -101 l0 -97 83 -1 c45 -1 305 -3
577 -5 l495 -3 0 100 0 100 -33 3 c-39 4 -42 -12 -7 -40 30 -24 32 -38 5 -38
-11 0 -20 6 -20 14 0 8 -11 28 -24 43 l-24 28 -509 0 c-280 0 -517 -1 -526 -3z
m883 -85 c26 7 34 -14 8 -23 -13 -4 -24 -2 -26 5 -2 6 -13 11 -23 11 -11 0
-17 5 -14 10 4 6 12 7 22 1 9 -4 24 -6 33 -4z m130 -7 c0 -5 -5 -10 -11 -10
-5 0 -7 5 -4 10 3 6 8 10 11 10 2 0 4 -4 4 -10z"/>
<path d="M3447 19853 c-3 -3 -35 -5 -70 -5 -35 0 -68 -3 -75 -7 -6 -4 -14 -49
-18 -105 l-7 -98 139 3 c76 1 147 6 157 11 9 5 23 5 30 1 6 -4 58 -8 115 -10
l102 -2 0 105 0 104 -77 1 c-97 2 -115 0 -131 -13 -9 -8 -19 -8 -35 0 -25 12
-122 24 -130 15z m156 -130 c-6 -15 -23 -18 -23 -4 0 5 3 17 6 26 5 12 9 14
14 4 5 -7 6 -18 3 -26z"/>
<path d="M13790 19849 c-174 -4 -323 -11 -347 -18 -85 -23 -148 -53 -210 -103
-141 -112 -215 -285 -214 -503 0 -122 11 -182 51 -283 56 -138 130 -228 233
-281 62 -32 61 -36 -11 -85 -178 -121 -261 -361 -218 -631 31 -192 133 -339
287 -413 104 -49 157 -54 549 -49 l355 4 -3 714 c-3 872 -11 1625 -18 1643 -4
10 -25 14 -77 13 -40 -1 -209 -4 -377 -8z m239 -235 c7 -6 8 -53 11 -448 2
-308 0 -381 -11 -391 -10 -9 -59 -15 -159 -19 -80 -4 -172 -8 -205 -9 -184
-10 -308 51 -372 185 -42 88 -57 169 -51 285 7 134 40 215 120 295 32 32 71
63 86 69 66 25 167 37 326 38 94 1 172 3 174 6 4 4 74 -6 81 -11z m14 -1468
c6 -261 5 -386 -2 -402 -10 -23 -12 -23 -193 -24 -312 -2 -327 0 -402 44 -118
69 -173 225 -148 419 13 98 50 175 117 243 47 48 57 53 140 72 50 12 123 21
163 21 41 0 75 1 77 3 2 2 57 3 122 3 l118 0 8 -379z"/>
<path d="M3867 19833 c-4 -3 -7 -48 -7 -100 l0 -93 35 -2 c107 -5 181 -26 305
-85 134 -64 204 -117 326 -243 69 -72 111 -133 178 -255 160 -294 211 -501
226 -910 5 -137 14 -281 20 -320 23 -143 62 -309 96 -408 54 -154 163 -369
237 -467 74 -98 194 -223 252 -265 22 -16 42 -32 45 -36 8 -10 146 -86 215
-118 35 -16 117 -42 182 -57 l118 -27 670 -3 c4563 -22 4254 -22 4295 0 124
66 172 150 225 391 53 242 76 344 91 410 7 33 29 134 49 225 20 91 42 192 49
225 8 33 26 114 41 180 14 66 35 156 45 200 10 44 28 125 40 180 12 55 30 136
41 180 10 44 25 112 33 150 8 39 27 122 41 185 14 63 36 167 50 230 14 63 37
167 51 230 14 63 34 151 43 195 21 97 41 136 84 169 52 40 105 36 151 -10 44
-44 39 -26 125 -434 16 -74 54 -250 85 -390 63 -282 127 -577 156 -715 11 -49
33 -153 49 -230 17 -77 51 -239 77 -360 25 -121 59 -283 75 -360 16 -77 36
-176 45 -220 34 -179 61 -242 136 -321 56 -59 122 -92 194 -96 57 -2 425 10
812 28 62 2 260 5 440 5 361 0 374 -2 502 -66 123 -62 276 -227 352 -380 40
-79 82 -232 97 -350 7 -52 10 -603 9 -1550 -1 -808 2 -1713 7 -2010 18 -1262
31 -3185 29 -4480 -1 -554 -4 -599 -51 -750 -62 -197 -183 -364 -333 -457 -97
-61 -132 -68 -405 -83 -137 -8 -273 -14 -301 -15 l-51 0 -12 113 c-37 366
-181 728 -387 972 -167 199 -376 338 -561 376 l-63 13 -1 56 c0 30 -1 78 -1
106 0 28 -3 56 -7 62 -3 5 -44 12 -91 13 l-85 4 -5 -110 -5 -110 -55 -7 c-230
-30 -436 -140 -614 -328 -230 -245 -383 -605 -426 -1002 -5 -54 -10 -100 -10
-103 0 -3 -91 -4 -202 -3 l-203 3 -7 35 c-4 19 -12 77 -19 129 -42 343 -190
688 -397 927 l-62 72 86 192 c47 105 84 195 82 200 -4 12 -149 122 -154 117
-3 -2 -41 -85 -85 -183 -44 -98 -83 -182 -87 -186 -4 -4 -31 9 -61 27 -75 47
-183 91 -288 116 -75 18 -107 21 -218 16 -71 -3 -143 -10 -160 -16 -193 -65
-253 -94 -365 -177 -304 -224 -548 -701 -585 -1144 -3 -41 -8 -94 -11 -118
l-5 -42 -172 2 -171 3 -13 130 c-65 666 -421 1199 -898 1345 -114 34 -268 45
-380 26 -136 -23 -282 -77 -367 -138 l-27 -19 -16 38 c-41 99 -148 333 -152
333 -2 0 -37 -25 -79 -56 -86 -65 -85 -46 -12 -208 27 -61 61 -136 75 -168
l25 -56 -69 -80 c-221 -255 -366 -599 -406 -962 l-13 -115 -579 4 c-319 2
-605 5 -635 7 -30 1 -142 3 -247 3 l-193 1 -105 90 c-322 277 -551 670 -677
1160 -57 224 -78 375 -78 563 l0 159 -102 -139 c-56 -76 -145 -199 -198 -273
-86 -120 -167 -230 -402 -548 -51 -68 -74 -92 -86 -88 -9 3 -138 35 -287 71
-148 36 -369 90 -490 120 -120 30 -221 53 -222 51 -2 -2 20 -63 48 -137 28
-74 68 -181 89 -239 21 -58 66 -179 100 -270 34 -91 85 -230 115 -310 29 -80
56 -153 60 -163 7 -16 -27 -17 -714 -11 l-722 7 3 -1244 c2 -684 5 -1505 8
-1824 l5 -580 76 -175 c71 -161 113 -260 311 -730 76 -179 215 -515 293 -703
30 -74 51 -114 56 -106 5 8 9 0 12 -22 3 -26 4 -21 6 21 2 44 5 50 11 30 7
-23 8 -23 10 10 l2 35 8 -30 8 -30 2 30 c1 26 3 27 10 10 7 -17 9 -14 9 13 1
19 5 31 11 27 6 -4 10 8 11 27 0 18 3 27 6 21 8 -21 23 -15 23 10 0 30 -94
261 -445 1087 -62 146 -140 330 -173 410 l-60 145 -6 610 c-3 336 -9 1084 -12
1663 l-6 1052 159 0 c470 0 1093 -14 1093 -24 0 -7 -99 -259 -220 -561 -121
-301 -218 -550 -216 -552 2 -2 91 14 197 37 324 69 793 170 811 176 18 5 2 28
307 -411 111 -159 259 -372 329 -471 l127 -182 6 57 c4 31 7 103 8 161 1 103
16 216 48 355 127 566 408 1044 779 1324 l68 52 366 -6 c515 -8 1014 -14 1157
-15 l122 0 5 -42 c51 -447 146 -716 347 -984 160 -213 350 -349 586 -420 119
-36 315 -39 440 -6 86 22 212 76 262 111 16 12 33 21 39 21 5 0 49 -89 97
-198 48 -108 89 -199 91 -200 1 -2 38 22 81 54 43 32 79 59 81 60 1 0 -38 92
-88 204 -49 111 -90 207 -90 212 0 5 25 38 56 71 116 128 202 268 278 453 66
162 120 373 133 522 l6 72 181 -2 180 -3 13 -100 c46 -373 194 -723 402 -957
28 -31 51 -61 51 -67 0 -6 -36 -89 -79 -185 -44 -96 -82 -183 -85 -193 -5 -14
11 -32 68 -77 40 -33 77 -59 82 -58 4 0 45 83 90 183 46 101 87 185 92 187 4
1 44 -18 88 -42 264 -148 576 -156 844 -20 377 190 674 667 739 1189 7 50 14
109 17 132 l5 43 199 0 c110 -1 202 -5 205 -10 3 -5 12 -62 20 -127 18 -146
63 -332 111 -461 179 -478 528 -810 910 -863 61 -9 85 -16 88 -28 3 -9 5 -50
4 -91 -1 -41 -1 -110 0 -153 l2 -78 93 3 92 3 0 169 0 169 101 32 c178 56 304
136 450 287 195 200 339 479 407 789 14 63 31 154 37 204 6 49 16 92 21 96 5
3 134 11 287 18 163 7 304 18 342 27 36 8 107 36 159 61 80 40 110 62 191 142
107 106 145 160 218 307 57 113 93 222 118 350 21 106 22 249 12 1109 -4 330
-10 1010 -13 1510 -5 885 -9 1269 -20 2180 -3 242 -8 1189 -10 2105 -2 916 -7
1697 -10 1735 -19 223 -100 449 -247 692 -29 48 -77 111 -107 139 -86 83 -294
200 -398 224 -62 14 -574 18 -943 6 -377 -12 -527 -17 -590 -21 -107 -6 -155
3 -189 37 -35 34 -44 62 -90 283 -17 83 -38 179 -46 215 -32 146 -77 354 -109
510 -19 91 -60 280 -91 420 -31 140 -60 277 -65 304 -6 27 -14 65 -20 85 -12
44 -61 276 -101 476 -50 250 -127 567 -149 617 -57 130 -167 207 -291 204 -56
-2 -73 -7 -117 -35 -116 -74 -143 -133 -222 -486 -76 -343 -86 -388 -110 -495
-10 -47 -30 -137 -45 -200 -14 -63 -35 -155 -45 -205 -30 -141 -57 -261 -85
-380 -14 -60 -32 -141 -40 -180 -8 -38 -30 -140 -50 -225 -19 -85 -45 -198
-56 -250 -11 -52 -38 -173 -60 -270 -22 -96 -49 -215 -60 -265 -23 -104 -49
-155 -91 -179 -27 -17 -94 -18 -1081 -16 -579 0 -1380 3 -1782 6 -401 3 -1029
7 -1395 9 -366 2 -681 6 -700 8 -88 11 -340 115 -340 139 0 4 -5 8 -11 8 -21
0 -140 102 -204 176 -252 289 -385 682 -385 1139 0 143 -29 395 -59 520 -93
381 -289 716 -546 936 -92 78 -93 79 -101 79 -3 0 -33 17 -64 39 -32 21 -94
51 -137 66 -43 15 -87 31 -98 35 -39 16 -130 18 -164 4 -36 -15 -56 -10 -47
12 5 14 -15 20 -27 7z m193 -128 c0 -8 -4 -15 -9 -15 -13 0 -22 16 -14 24 11
11 23 6 23 -9z m580 -445 c0 -5 -4 -10 -10 -10 -5 0 -10 5 -10 10 0 6 5 10 10
10 6 0 10 -4 10 -10z m129 -62 c1 -5 -3 -8 -9 -8 -5 0 -10 12 -9 28 0 24 1 25
9 7 5 -11 9 -23 9 -27z m-977 -11568 c118 -478 369 -931 674 -1216 l76 -70
-91 -84 c-207 -189 -397 -460 -534 -765 -64 -140 -148 -391 -182 -541 -13 -58
-26 -108 -28 -110 -4 -4 -213 291 -338 476 -30 44 -287 507 -508 911 -36 66
-41 84 -41 138 0 71 -2 66 163 366 60 110 137 250 169 310 55 101 94 158 288
420 37 50 118 161 181 248 l114 159 13 -59 c7 -32 27 -114 44 -183z m3909 4
c176 -33 321 -115 460 -261 201 -210 326 -497 374 -855 10 -80 8 -348 -5 -438
-35 -256 -115 -483 -235 -664 -55 -84 -131 -176 -145 -176 -4 0 -13 12 -18 28
-6 15 -38 89 -71 165 -130 294 -182 412 -299 679 -113 257 -218 495 -503 1139
-60 136 -109 251 -109 257 0 17 97 68 183 97 136 45 239 54 368 29z m2745 -32
c74 -23 215 -92 221 -108 5 -14 -30 -95 -272 -629 -92 -203 -218 -482 -280
-620 -62 -137 -186 -412 -275 -610 -89 -198 -167 -373 -172 -388 -10 -27 -11
-28 -31 -10 -83 73 -238 351 -291 519 -70 228 -95 540 -62 774 76 528 362 944
731 1062 131 42 312 46 431 10z m2486 -209 c1 -115 3 -248 3 -298 5 -237 7
-2156 3 -2160 -2 -2 -44 4 -93 14 -169 35 -312 118 -447 259 -177 186 -293
418 -355 711 -25 116 -27 144 -28 361 0 208 3 248 23 345 88 420 310 751 599
895 90 44 192 74 271 79 l22 1 2 -207z m281 168 c184 -64 363 -217 499 -426
137 -212 216 -460 239 -755 23 -294 -29 -577 -156 -846 -67 -142 -119 -218
-224 -327 -123 -127 -279 -224 -408 -252 l-33 -7 0 519 c0 285 -3 877 -7 1316
-6 792 -6 797 14 797 11 0 45 -9 76 -19z m-6185 -266 c16 -38 115 -263 220
-500 516 -1170 740 -1689 735 -1699 -3 -5 -47 -28 -97 -52 -121 -57 -227 -78
-365 -72 -199 9 -357 85 -527 253 -190 187 -304 410 -371 724 -25 116 -28 143
-27 356 0 214 2 239 28 359 58 272 174 515 320 674 22 23 43 39 47 35 4 -4 20
-39 37 -78z m3842 23 c95 -103 215 -321 268 -489 63 -198 76 -291 77 -539 0
-283 -22 -411 -111 -638 -140 -361 -403 -620 -699 -689 -73 -17 -219 -19 -304
-3 -70 13 -198 64 -253 101 l-37 25 30 65 c17 35 104 228 194 429 149 333 282
630 465 1035 155 343 303 672 315 703 8 17 17 32 20 32 3 0 19 -15 35 -32z
m-8321 -43 c53 -13 173 -43 266 -66 94 -23 171 -42 172 -43 2 -1 -30 -63 -71
-137 -40 -74 -108 -198 -151 -277 -43 -78 -79 -141 -81 -140 -4 4 -254 677
-254 683 0 9 23 5 119 -20z m201 -1260 c24 -44 87 -160 142 -257 96 -172 107
-198 89 -198 -4 0 -133 -27 -286 -61 -152 -33 -280 -58 -282 -55 -3 3 51 146
120 318 69 172 131 326 137 342 10 28 11 28 24 10 7 -10 32 -55 56 -99z"/>
<path d="M9985 19795 c-203 -56 -392 -201 -499 -384 -62 -107 -142 -296 -128
-305 6 -4 100 -3 233 3 34 1 37 4 64 67 118 277 363 429 621 385 83 -15 136
-37 223 -95 84 -56 128 -103 179 -191 271 -471 187 -1241 -166 -1520 -68 -54
-149 -97 -214 -113 -62 -16 -229 -18 -256 -3 -12 6 -25 10 -29 10 -13 -3 -110
37 -123 51 -3 3 -24 17 -46 32 -54 35 -129 136 -185 248 l-44 90 -127 0 c-120
0 -128 -1 -128 -19 0 -32 57 -164 113 -263 56 -99 173 -228 257 -285 57 -37
166 -90 205 -98 17 -4 37 -9 45 -13 27 -10 54 -13 160 -18 210 -10 375 53 544
207 112 102 225 279 287 451 124 339 132 800 20 1106 -68 187 -128 287 -266
445 -83 96 -191 161 -345 209 -99 31 -289 32 -395 3z"/>
<path d="M5987 19804 c-3 -4 -39 -6 -79 -6 -46 1 -75 -3 -80 -11 -9 -13 -11
-188 -3 -209 4 -10 66 -13 318 -13 171 0 333 -1 360 -3 l47 -5 0 -411 c0 -226
-4 -417 -9 -424 -6 -11 -70 -13 -320 -10 -241 2 -314 0 -320 -10 -6 -10 -8
-200 -2 -222 0 -3 144 -4 318 -3 234 1 320 -2 325 -10 9 -15 10 -529 2 -694
l-7 -120 -361 0 -361 0 -3 -108 c-1 -60 1 -112 6 -117 4 -4 220 -10 478 -12
l471 -4 5 469 c3 258 5 793 4 1189 l-1 720 -330 1 c-181 1 -334 4 -338 6 -13
8 -114 13 -120 7z"/>
<path d="M7945 19776 c-170 -50 -238 -90 -365 -216 -151 -149 -259 -367 -312
-632 -19 -97 -22 -144 -22 -328 0 -231 10 -310 61 -485 107 -373 368 -656 666
-721 81 -18 253 -20 335 -5 29 6 76 22 106 36 29 14 56 25 60 25 10 0 106 69
165 119 30 25 82 81 116 123 344 436 368 1230 51 1722 -146 227 -301 338 -526
377 -148 26 -206 23 -335 -15z m333 -242 c80 -18 132 -44 210 -108 187 -150
276 -355 302 -696 23 -296 -37 -605 -155 -800 -44 -72 -137 -175 -189 -208
-97 -62 -158 -84 -251 -91 -116 -9 -190 3 -279 43 -298 136 -465 525 -435
1011 19 316 101 534 261 695 76 77 160 126 264 154 96 27 152 27 272 0z"/>
<path d="M1308 18632 l-58 -3 7 -742 c3 -408 10 -744 14 -747 7 -5 80 -5 152
-1 17 1 18 32 12 729 -3 400 -8 736 -10 748 -5 22 -2 22 -117 16z"/>
<path d="M2160 18443 c-24 -9 -111 -96 -121 -122 -8 -20 -3 -33 28 -79 l38
-54 7 43 c27 158 198 134 198 -27 0 -120 -30 -146 -168 -144 -53 1 -101 1
-105 1 -4 -1 11 -26 34 -56 l41 -55 62 -1 c33 -1 76 -2 95 -4 21 -2 38 3 47
14 69 83 72 90 79 170 8 95 0 151 -30 211 -27 52 -58 84 -98 99 -30 11 -81 13
-107 4z"/>
<path d="M2165 17889 c-70 -20 -146 -133 -148 -223 -1 -28 2 -77 7 -108 8 -57
8 -58 -16 -58 -36 0 -65 25 -84 75 -9 25 -19 45 -23 45 -12 -1 -61 -73 -61
-90 0 -24 44 -79 85 -107 20 -14 55 -26 78 -28 47 -4 151 -7 183 -6 13 1 47
35 100 104 126 160 120 146 99 222 -35 129 -126 201 -220 174z m100 -142 c83
-83 37 -247 -70 -247 -55 0 -105 106 -85 183 26 95 95 124 155 64z"/>
<path d="M3407 17790 c-24 -7 -72 -28 -143 -62 -44 -21 -165 -126 -207 -180
-97 -126 -177 -332 -197 -510 -5 -46 -14 -587 -20 -1203 -5 -616 -12 -1201
-15 -1300 -3 -99 -7 -441 -10 -760 -3 -319 -8 -702 -11 -852 l-7 -271 -691 4
c-379 3 -692 7 -694 9 -6 6 -3 603 4 942 4 160 4 297 2 305 -4 10 -27 12 -91
10 l-85 -3 -6 -342 c-3 -188 -8 -525 -11 -748 l-5 -406 737 -2 c406 -1 761 -3
788 -4 l50 -2 0 -265 c1 -256 -4 -739 -20 -1882 l-7 -546 518 0 c868 0 3449
-19 3660 -28 l131 -5 6 68 c3 37 3 91 0 120 l-6 53 -176 1 c-97 0 -228 2 -291
4 -277 6 -1415 16 -2484 21 -638 3 -1163 7 -1168 10 -5 3 -6 8 -4 12 2 4 7
324 10 712 4 388 9 759 11 825 2 66 7 509 10 985 3 476 8 901 10 945 2 44 9
708 15 1475 6 767 15 1566 20 1775 9 426 11 436 86 592 58 121 148 214 250
258 l69 30 200 -1 c180 -2 205 -4 255 -24 77 -30 153 -90 206 -163 63 -86 90
-146 119 -262 l26 -100 9 -800 c13 -1093 14 -1119 44 -1236 67 -265 210 -461
399 -550 34 -16 85 -33 113 -38 28 -6 194 -13 370 -16 175 -4 346 -8 379 -9
33 -2 235 -4 448 -6 266 -2 390 -7 395 -14 4 -6 7 -87 7 -181 l0 -170 92 -3
93 -3 2 182 3 182 235 -3 c129 -2 267 -4 305 -5 39 -1 392 -5 785 -9 393 -4
735 -9 758 -12 l44 -6 -6 -456 c-3 -251 -5 -494 -6 -540 l0 -83 -1012 7 c-557
3 -1092 7 -1188 9 -96 2 -616 7 -1155 10 -890 7 -988 6 -1068 -9 -49 -10 -96
-21 -105 -25 -10 -4 -35 -16 -57 -27 -65 -30 -171 -100 -221 -146 -53 -49
-149 -165 -183 -220 -12 -21 -25 -38 -28 -38 -2 0 -2 129 1 288 7 320 13 762
21 1382 3 228 7 505 10 615 3 110 7 459 10 775 3 316 8 655 11 753 l5 177 -23
1 c-95 5 -139 4 -147 0 -5 -3 -11 -159 -15 -346 -3 -187 -8 -448 -11 -580 -3
-132 -10 -544 -15 -915 -5 -371 -12 -790 -15 -930 -2 -140 -7 -426 -10 -635
-3 -209 -7 -499 -10 -645 -8 -449 -7 -620 3 -633 5 -7 12 -55 16 -107 34 -490
273 -888 616 -1027 127 -51 130 -51 1105 -51 501 0 1081 -3 1290 -6 209 -3
623 -8 920 -12 297 -3 574 -7 615 -9 41 -2 203 -4 358 -4 l284 -1 -3 -443 c-2
-243 -5 -465 -7 -493 l-4 -51 -241 3 c-133 2 -372 6 -532 9 -159 2 -325 5
-367 5 l-78 0 -2 217 -3 216 -88 1 c-49 1 -90 -1 -92 -4 -1 -3 -4 -246 -6
-540 l-4 -535 92 -3 93 -3 2 203 3 203 400 -1 c469 -1 1640 -13 1935 -19 113
-3 351 -5 530 -5 179 0 346 -3 372 -6 l47 -6 -1 -197 0 -196 54 -7 c29 -3 70
-6 91 -7 l37 -1 0 206 0 207 603 -8 c795 -10 1768 -13 1992 -5 176 5 181 6
248 38 135 63 239 198 303 392 l28 85 4 490 c3 412 1 508 -13 605 -29 207
-100 395 -212 561 -51 76 -183 207 -244 242 -21 12 -39 26 -39 30 0 4 37 45
83 90 181 179 290 371 365 642 52 186 56 234 55 690 -1 517 -6 552 -96 734
-64 130 -176 232 -297 269 -48 15 -93 16 -380 13 -901 -13 -2372 -3 -2391 16
-5 5 -10 94 -11 198 l-3 190 -85 0 -85 0 -3 -184 c-1 -108 -7 -190 -13 -197
-7 -9 -39 -11 -112 -9 -110 4 -525 12 -992 20 -159 2 -636 7 -1060 10 -1247 8
-1968 20 -1987 31 -6 4 -7 87 -2 224 4 119 4 221 1 226 -3 5 -45 7 -94 4 l-88
-5 -5 -225 -5 -225 -310 0 c-599 1 -1233 15 -1281 30 -152 46 -289 213 -345
421 -23 85 -21 7 -44 1529 -7 462 -15 557 -61 694 -49 147 -145 299 -244 389
-46 41 -154 100 -220 120 -54 16 -98 19 -265 20 -110 0 -212 -3 -228 -8z
m6153 -3465 c201 -3 496 -8 655 -11 160 -3 346 -6 415 -8 l125 -2 3 -212 c2
-193 4 -212 20 -213 9 -1 50 -3 90 -4 67 -3 72 -1 73 19 0 11 0 103 0 204 -1
181 -1 182 21 191 13 5 111 6 218 4 265 -7 1800 -9 2190 -3 309 5 316 5 355
-17 84 -45 158 -150 189 -269 21 -81 33 -717 17 -854 -61 -503 -292 -851 -641
-966 -46 -15 -104 -19 -370 -23 l-315 -6 2 -45 c0 -25 2 -77 2 -116 l1 -72
388 0 c427 1 436 0 549 -64 111 -62 234 -207 298 -351 37 -84 73 -222 85 -323
16 -144 13 -895 -5 -977 -29 -137 -102 -250 -196 -302 l-54 -30 -765 0 c-421
0 -1008 3 -1305 7 -297 4 -568 8 -603 8 l-63 0 1 203 c1 111 1 210 1 219 -1
15 -11 17 -88 13 l-88 -3 -5 -214 -5 -213 -480 3 c-264 2 -572 5 -685 7 -113
2 -317 4 -453 4 l-248 1 1 477 c1 262 5 485 10 494 8 14 27 16 152 14 399 -9
846 -6 896 5 344 76 618 413 709 870 27 135 25 442 -4 585 -76 375 -262 657
-534 811 -138 78 -192 83 -841 84 l-378 0 0 535 0 536 23 8 c12 5 78 7 147 5
69 -2 289 -6 490 -9z m-3520 -1280 c245 -4 506 -9 580 -10 74 -2 610 -6 1190
-9 1811 -11 2058 -14 2120 -31 372 -99 626 -599 556 -1096 -50 -358 -227 -628
-486 -741 l-75 -32 -540 2 c-297 1 -688 4 -870 7 -181 2 -568 7 -860 10 -291
4 -577 8 -635 11 -58 2 -683 6 -1390 9 -809 4 -1307 10 -1345 16 -107 19 -199
71 -300 173 -137 138 -224 315 -261 529 -24 139 -15 390 19 518 42 162 130
333 225 440 54 60 170 139 257 175 69 27 75 28 295 31 124 2 234 5 245 6 43 4
854 0 1275 -8z"/>
<path d="M11624 13324 c-48 -20 -77 -87 -72 -167 l3 -62 -57 -3 c-32 -2 -58
-7 -58 -12 0 -5 13 -24 28 -41 27 -30 30 -31 112 -31 141 0 140 0 176 36 40
40 42 56 11 92 l-23 27 -13 -32 c-22 -51 -87 -55 -109 -5 -18 37 -15 79 7 105
18 22 26 24 115 24 53 0 96 4 96 8 0 5 -12 24 -26 42 -25 34 -28 34 -93 33
-36 -1 -80 -7 -97 -14z"/>
<path d="M11565 12933 c-28 -44 -29 -45 -72 -40 -24 2 -46 1 -49 -4 -11 -18
36 -68 71 -75 35 -6 35 -7 35 -58 l0 -51 37 53 c36 50 38 52 84 52 40 0 55 6
84 31 39 35 44 62 16 98 l-18 23 -21 -36 c-20 -34 -24 -36 -72 -36 l-50 0 0
39 c0 22 -4 42 -8 45 -4 2 -21 -16 -37 -41z"/>
<path d="M11583 12653 c-25 -33 -28 -44 -28 -118 0 -74 3 -85 28 -118 15 -20
43 -44 61 -52 31 -15 37 -15 64 -1 34 18 72 66 72 91 0 19 -31 75 -41 75 -4 0
-9 -12 -11 -27 -4 -33 -48 -67 -75 -59 -41 13 -57 97 -25 135 13 17 31 22 80
26 35 2 66 6 69 9 3 2 -7 21 -22 40 -26 34 -31 36 -86 36 -55 0 -59 -2 -86
-37z"/>
<path d="M12164 12515 c-9 -21 4 -35 32 -35 23 0 25 -3 22 -37 -3 -33 -7 -38
-31 -41 -23 -3 -28 -8 -25 -25 3 -20 10 -22 76 -25 71 -3 72 -2 72 22 0 19 -6
25 -27 28 -25 3 -28 7 -28 38 0 27 5 36 20 38 29 6 45 21 38 38 -8 20 -141 20
-149 -1z"/>
<path d="M12402 12043 l3 -428 92 -3 92 -3 -2 428 -2 428 -93 3 -93 3 3 -428z"/>
<path d="M11612 12314 c-74 -52 -84 -209 -17 -280 l32 -34 95 0 c79 0 98 -3
111 -18 10 -10 17 -26 17 -35 0 -25 17 -21 36 8 14 21 14 30 4 54 -22 53 -42
63 -147 72 -76 7 -101 12 -111 26 -42 57 -16 143 43 143 27 0 55 -34 55 -67 0
-32 14 -29 38 9 20 31 20 32 1 69 -24 48 -54 69 -99 69 -20 0 -46 -7 -58 -16z"/>
<path d="M12236 12288 c-7 -18 -16 -41 -19 -51 -9 -26 -29 -10 -22 16 4 12 9
30 11 40 8 27 -25 21 -37 -7 -16 -34 -3 -93 23 -107 18 -10 25 -8 40 11 10 12
18 30 18 40 0 22 26 45 35 31 3 -6 1 -19 -5 -30 -14 -28 -13 -51 4 -51 21 0
36 54 26 92 -17 56 -54 65 -74 16z"/>
<path d="M12164 12131 c-2 -2 -4 -13 -4 -23 0 -16 9 -18 74 -18 74 0 94 10 77
38 -7 11 -136 14 -147 3z"/>
<path d="M12160 12031 c0 -19 42 -37 60 -26 5 3 12 0 15 -6 4 -5 -11 -26 -34
-45 -65 -56 -53 -84 34 -84 56 0 75 8 75 31 0 15 -7 19 -35 19 -19 0 -35 4
-35 8 0 4 16 23 35 42 20 19 35 44 35 57 0 22 -3 23 -75 23 -67 0 -75 -2 -75
-19z"/>
<path d="M12165 11822 c-9 -25 -5 -29 29 -35 57 -9 116 3 116 23 0 16 -11 19
-70 22 -51 2 -71 -1 -75 -10z"/>
<path d="M11587 11782 c-44 -46 -37 -52 57 -52 84 0 84 0 115 35 17 20 31 38
31 40 0 3 -40 5 -88 5 -84 0 -90 -1 -115 -28z"/>
<path d="M12164 11746 c-3 -7 -4 -35 -2 -62 l3 -49 73 -3 c66 -3 72 -1 72 17
0 14 -8 21 -27 23 -22 2 -29 9 -31 31 -4 33 -24 31 -32 -2 -9 -38 -25 -28 -28
17 -3 41 -17 56 -28 28z"/>
<path d="M11630 11703 c-85 -30 -105 -172 -36 -256 22 -27 26 -28 134 -32 123
-5 129 -2 89 48 -20 25 -30 28 -97 33 -60 4 -79 9 -92 25 -23 27 -23 51 1 80
17 22 26 24 90 21 39 -1 71 1 71 5 -1 4 -13 22 -28 39 -20 23 -38 32 -72 36
-25 3 -52 4 -60 1z"/>
<path d="M11678 11390 c-9 -6 -42 -44 -73 -85 l-57 -76 12 -47 c17 -70 48
-103 104 -109 86 -10 126 43 126 167 0 52 3 70 13 70 16 0 41 -27 51 -54 6
-18 7 -18 26 -1 28 25 25 55 -8 94 -22 26 -39 35 -77 42 -67 11 -97 10 -117
-1z m34 -97 c23 -20 24 -90 2 -121 -23 -34 -69 -30 -89 8 -21 40 -19 72 6 104
23 30 54 33 81 9z"/>
<path d="M11590 11010 c-21 -22 -29 -43 -34 -89 -9 -77 8 -134 51 -178 56 -55
129 -38 169 38 14 28 14 32 -6 64 -25 41 -40 45 -40 10 0 -29 -32 -65 -58 -65
-50 0 -74 90 -39 144 17 26 22 27 85 25 75 -2 80 6 34 54 -22 23 -34 27 -80
27 -47 0 -58 -4 -82 -30z"/>
<path d="M1930 17339 c0 -4 17 -31 38 -58 l37 -51 65 -2 c36 -1 79 -1 95 -1
46 3 104 -16 115 -36 15 -30 30 -105 24 -128 -11 -41 -59 -55 -177 -51 -59 1
-107 1 -107 -1 0 -2 18 -28 39 -56 34 -45 45 -53 82 -58 58 -8 136 8 176 36
50 34 68 86 68 193 l0 92 -45 58 -45 58 -100 3 c-55 1 -137 4 -182 6 -46 3
-83 1 -83 -4z m428 -292 c2 -12 -1 -15 -12 -11 -19 7 -22 38 -3 32 6 -3 13
-12 15 -21z"/>
<path d="M1272 17050 c-4 -3 -8 -337 -9 -742 l-2 -736 37 -6 c20 -2 61 -5 90
-5 l52 0 2 382 c2 462 -3 1099 -9 1109 -4 8 -151 6 -161 -2z"/>
<path d="M2086 16826 c-7 -11 -26 -34 -40 -50 -18 -18 -24 -32 -18 -38 6 -6
64 -8 137 -6 l127 3 39 43 c21 24 39 48 39 53 0 5 -33 10 -72 10 -40 1 -101 3
-135 4 -54 2 -64 -1 -77 -19z"/>
<path d="M1872 16518 c-7 -13 -21 -35 -33 -50 l-22 -26 21 -34 c52 -83 99
-104 242 -107 58 -1 119 -6 136 -12 63 -20 94 -129 58 -205 -47 -98 -166 -67
-181 47 -3 21 -8 39 -12 38 -12 -1 -71 -89 -71 -106 0 -9 14 -38 31 -64 43
-67 114 -102 181 -88 63 14 120 72 143 146 17 53 17 113 2 225 -4 27 -46 97
-71 117 -6 5 -83 12 -171 15 l-160 4 -28 32 c-15 17 -30 44 -34 61 -7 35 -16
37 -31 7z"/>
<path d="M2125 15844 c-43 -22 -84 -63 -106 -107 l-20 -38 39 -59 c22 -32 43
-56 46 -53 3 4 6 22 6 42 0 74 73 131 129 101 56 -29 80 -143 46 -210 -24 -47
-57 -58 -167 -53 -54 2 -98 0 -98 -3 0 -4 19 -31 41 -61 l41 -53 62 -2 c120
-3 128 -1 171 47 36 39 42 53 53 122 19 126 -7 231 -75 295 -51 49 -114 61
-168 32z"/>
<path d="M1293 15492 l-31 -3 -4 -132 c-3 -73 -5 -289 -6 -482 -1 -192 -5
-470 -9 -618 l-6 -267 92 1 91 1 2 202 c0 110 2 215 3 231 1 17 3 262 6 545
l4 515 -55 5 c-30 3 -69 4 -87 2z"/>
<path d="M2351 15280 c-8 -14 -25 -38 -38 -54 -14 -17 -29 -40 -34 -53 -8 -21
-15 -23 -81 -23 -96 -1 -151 -28 -201 -100 -18 -25 -23 -66 -9 -72 4 -1 18
-18 31 -36 25 -35 41 -34 41 3 0 12 13 37 29 54 27 29 33 31 104 31 51 0 77
-4 80 -12 2 -7 2 -39 -1 -70 -3 -39 -1 -58 6 -58 15 0 92 97 92 115 0 18 42
25 122 21 65 -4 67 -3 57 16 -11 20 -40 57 -72 91 -12 11 -27 17 -39 14 -11
-3 -31 -2 -44 3 -21 8 -23 16 -26 82 -3 68 -4 71 -17 48z"/>
<path d="M2113 14833 c-30 -6 -108 -77 -122 -111 -11 -27 -9 -34 20 -76 18
-25 36 -46 40 -46 3 0 9 14 13 31 3 17 20 44 38 61 27 25 37 29 67 23 96 -16
133 -153 64 -235 l-26 -31 -163 3 c-125 2 -163 0 -160 -9 3 -7 22 -34 43 -62
44 -57 55 -60 194 -58 84 2 100 5 132 27 82 55 127 175 108 284 -6 35 -11 66
-11 69 0 4 45 7 100 7 66 0 100 4 100 11 0 6 -20 34 -45 63 l-44 52 -163 1
c-90 0 -173 -1 -185 -4z"/>
<path d="M309 11390 c-4 -3 -11 -53 -15 -112 l-7 -106 104 -7 c117 -8 217 -9
494 -7 263 2 757 -12 772 -21 10 -6 12 -47 8 -165 -2 -86 -7 -355 -10 -597 -3
-242 -10 -775 -16 -1185 -6 -410 -14 -959 -17 -1220 l-7 -475 -475 0 c-261 0
-567 2 -680 5 -113 3 -208 3 -212 0 -4 -3 -8 -56 -9 -119 l-3 -114 25 -3 c13
-1 365 -6 781 -9 l758 -7 1 338 c0 187 2 359 4 384 2 25 6 308 9 630 3 322 8
702 11 845 3 143 7 474 10 735 3 261 8 637 11 835 l7 361 -414 2 c-228 1 -499
4 -604 8 -269 8 -515 10 -526 4z"/>
<path d="M8760 3280 c0 -64 3 -80 15 -80 9 0 15 9 15 25 0 24 2 25 65 25 63 0
65 1 65 25 0 23 -4 25 -42 25 -67 0 -88 9 -88 36 0 15 -6 24 -15 24 -12 0 -15
-16 -15 -80z"/>
<path d="M9007 3333 c-4 -3 -7 -204 -7 -445 l0 -438 95 0 95 0 0 163 0 162
347 -2 c482 -4 532 -6 573 -26 82 -40 157 -138 280 -367 40 -74 94 -166 120
-205 50 -74 142 -167 200 -202 105 -63 257 -70 373 -15 127 59 212 161 361
435 170 312 236 377 382 377 133 -1 208 -79 376 -391 103 -191 134 -237 217
-320 76 -76 123 -103 218 -125 173 -40 335 41 464 233 27 39 87 145 135 235
137 258 207 341 311 367 57 15 596 14 665 0 66 -14 161 -57 224 -100 107 -74
223 -217 281 -347 14 -31 31 -70 38 -87 18 -40 51 -174 65 -259 14 -86 22
-784 10 -888 -26 -237 -125 -453 -272 -594 -155 -148 -222 -164 -764 -180
-237 -7 -243 -6 -288 15 -25 13 -66 46 -91 74 -47 54 -141 209 -215 356 -147
294 -312 426 -510 407 -182 -17 -305 -129 -459 -421 -114 -217 -159 -291 -209
-346 -117 -130 -271 -131 -393 -3 -54 57 -93 117 -174 269 -166 311 -260 419
-412 475 -52 19 -77 22 -150 18 -124 -6 -184 -35 -283 -137 -80 -82 -138 -172
-251 -389 -108 -206 -187 -297 -283 -323 -29 -8 -136 -10 -356 -5 -173 3 -460
6 -636 6 l-322 0 -48 33 c-54 36 -123 132 -168 235 -47 107 -76 244 -86 398
-9 153 -27 239 -70 345 -76 184 -224 320 -379 349 -29 5 -140 10 -245 10 -105
0 -228 3 -273 6 l-82 7 -41 101 c-23 56 -50 119 -60 141 -10 22 -86 202 -170
400 -84 198 -175 412 -202 475 -27 63 -63 146 -79 185 -17 38 -33 73 -38 78
-4 4 -19 -18 -34 -50 -14 -32 -67 -150 -117 -263 -51 -113 -130 -288 -175
-390 -46 -102 -124 -277 -175 -390 -51 -113 -107 -239 -125 -280 -85 -196
-191 -433 -224 -505 -21 -44 -53 -119 -72 -167 -31 -81 -49 -107 -49 -75 0 8
-4 7 -11 -3 -8 -12 -9 -10 -4 7 4 15 -31 108 -114 300 -65 153 -183 429 -261
613 -78 184 -175 412 -215 505 -39 94 -128 300 -195 459 -96 225 -125 285
-131 268 -8 -21 -56 -129 -246 -546 -57 -127 -101 -236 -99 -243 3 -7 1 -13
-5 -13 -5 0 -22 -26 -36 -57 -14 -32 -59 -129 -100 -216 -40 -87 -73 -163 -73
-169 0 -6 10 -8 25 -4 31 8 33 -7 3 -22 -22 -10 -22 -11 5 -11 40 -1 25 -17
-24 -25 -39 -6 -42 -10 -71 -74 -16 -37 -39 -87 -50 -112 -12 -25 -29 -63 -38
-85 l-18 -41 27 -1 c14 0 18 1 9 4 -10 2 -18 8 -18 13 0 12 41 17 70 9 22 -6
21 -9 -9 -13 -5 0 -13 -5 -18 -10 -4 -5 4 -7 20 -4 15 3 27 1 27 -3 0 -5 -4
-9 -10 -9 -5 0 -13 -1 -17 -2 -44 -10 -81 -14 -77 -7 3 5 2 9 -3 9 -6 -1 -82
-163 -130 -279 -2 -3 21 -6 51 -6 50 0 58 -3 85 -34 17 -19 31 -37 31 -41 0
-11 -104 0 -112 13 -11 17 -10 39 2 32 6 -3 10 -1 10 5 0 6 -8 10 -17 8 -10
-2 -17 -9 -16 -15 1 -5 -10 -10 -25 -9 -20 1 -27 -4 -26 -17 1 -9 -4 -17 -10
-17 -7 0 -22 -20 -34 -45 -23 -47 -14 -59 19 -29 11 10 39 17 76 19 134 5 115
-8 168 112 62 141 61 138 47 129 -7 -4 -12 -2 -12 3 0 6 7 11 15 11 8 0 21 15
29 33 8 17 48 106 89 197 41 91 166 368 277 615 111 248 205 454 209 458 4 4
29 -43 56 -105 26 -62 82 -194 125 -293 43 -99 122 -283 175 -410 102 -240
134 -309 135 -287 0 7 5 10 11 7 6 -4 8 -10 5 -13 -3 -3 2 -14 11 -24 15 -17
15 -20 3 -28 -12 -8 -9 -10 10 -11 14 0 19 -3 13 -6 -19 -7 -16 -21 7 -28 11
-3 20 -11 20 -17 0 -6 -9 -8 -20 -5 -11 3 -20 2 -20 -2 0 -9 52 -87 86 -129
18 -21 22 -32 13 -32 -8 0 -20 14 -28 31 -7 16 -15 28 -17 26 -7 -6 30 -97 39
-97 4 0 6 4 2 9 -10 16 11 21 41 9 28 -10 54 -46 54 -75 0 -7 4 -13 9 -13 8 0
24 -37 22 -52 0 -3 13 -11 30 -17 24 -8 30 -15 26 -30 -3 -13 6 -29 28 -50 33
-30 52 -41 40 -21 -3 6 1 7 10 4 8 -4 15 -11 14 -18 -4 -30 3 -45 22 -51 14
-5 19 -14 17 -29 -1 -13 3 -31 11 -40 9 -11 10 -16 2 -16 -13 0 -3 -53 11 -58
4 -2 8 -49 8 -105 0 -70 -3 -97 -10 -87 -8 12 -10 9 -10 -12 0 -46 15 -32 50
44 140 308 200 458 195 490 -4 24 -3 28 3 13 8 -19 9 -18 23 5 13 25 187 412
404 900 62 140 126 284 142 320 17 36 52 113 78 173 26 59 49 106 51 105 4 -5
338 -784 455 -1063 60 -143 114 -269 119 -280 5 -11 68 -157 140 -324 72 -167
134 -310 138 -317 6 -11 27 0 85 42 42 30 77 61 77 67 0 7 -67 169 -150 361
-82 191 -150 352 -150 356 0 16 440 0 494 -17 62 -20 153 -109 190 -186 33
-70 56 -179 56 -265 0 -288 141 -652 313 -807 109 -99 64 -94 849 -97 l683 -3
66 31 c126 60 217 176 384 487 143 267 215 337 349 337 143 -1 214 -73 385
-389 144 -265 222 -362 343 -427 72 -38 74 -39 183 -39 100 0 115 2 167 28
128 63 210 167 362 455 163 310 227 376 366 376 76 0 128 -23 186 -81 54 -57
83 -101 181 -288 144 -273 200 -348 317 -428 95 -64 125 -69 396 -57 416 18
508 27 590 55 199 68 382 240 497 470 40 78 97 247 120 355 16 76 18 138 18
560 l0 475 -27 127 c-61 282 -175 502 -345 671 -97 95 -139 126 -239 176 -139
68 -174 73 -545 72 -365 -2 -392 -6 -486 -67 -100 -67 -167 -158 -295 -399
-126 -237 -174 -304 -254 -351 -53 -31 -119 -40 -186 -24 -45 11 -63 23 -118
79 -65 67 -100 122 -220 341 -149 274 -266 384 -436 413 -124 21 -250 -22
-351 -121 -72 -70 -128 -155 -245 -371 -127 -234 -177 -297 -272 -336 -46 -19
-144 -19 -190 0 -86 36 -147 113 -271 340 -150 273 -241 388 -354 445 -94 47
-131 50 -581 50 l-420 0 0 160 0 160 -88 0 c-49 0 -92 -3 -95 -7z m-4230 -918
c-16 -16 -37 -20 -37 -7 0 8 42 30 49 25 2 -1 -4 -9 -12 -18z m338 -5 c3 -5 1
-10 -4 -10 -6 0 -11 5 -11 10 0 6 2 10 4 10 3 0 8 -4 11 -10z m1950 -260 c3
-5 2 -10 -4 -10 -5 0 -13 5 -16 10 -3 6 -2 10 4 10 5 0 13 -4 16 -10z m40 -18
c-3 -3 -11 0 -18 7 -9 10 -8 11 6 5 10 -3 15 -9 12 -12z m-1882 -61 c29 -15
36 -31 12 -31 -8 0 -15 4 -15 9 0 5 -9 13 -20 16 -11 3 -20 11 -20 17 0 5 3 8
8 6 4 -2 19 -10 35 -17z m-613 -66 c-14 -17 -40 -20 -40 -6 0 5 10 12 23 14
12 2 24 5 26 6 2 0 -2 -6 -9 -14z m647 9 c-3 -3 -12 -4 -19 -1 -8 3 -5 6 6 6
11 1 17 -2 13 -5z m1848 -22 c-3 -3 -11 0 -18 7 -9 10 -8 11 6 5 10 -3 15 -9
12 -12z m-1855 -42 c0 -5 -4 -10 -9 -10 -6 0 -13 5 -16 10 -3 6 1 10 9 10 9 0
16 -4 16 -10z m1936 -82 c35 -55 29 -56 -21 -4 -25 26 -45 55 -45 63 0 14 3
13 21 -3 12 -10 32 -36 45 -56z m-2716 -27 c0 -5 -7 -11 -14 -14 -10 -4 -13
-1 -9 9 6 15 23 19 23 5z m-43 -154 c0 -8 -6 -14 -14 -14 -17 0 -17 14 0 20 6
3 12 6 13 6 0 1 1 -5 1 -12z m-37 -67 c0 -5 -2 -10 -4 -10 -3 0 -8 5 -11 10
-3 6 -1 10 4 10 6 0 11 -4 11 -10z m-18 -75 c-2 -5 -8 -9 -13 -7 -5 1 -9 -2
-9 -8 0 -5 -6 -10 -14 -10 -9 0 -12 7 -9 21 4 14 12 19 27 17 11 -2 19 -7 18
-13z m-62 -5 c0 -5 -4 -10 -9 -10 -6 0 -13 5 -16 10 -3 6 1 10 9 10 9 0 16 -4
16 -10z m40 -76 c0 -16 -2 -16 -24 -8 -22 8 -20 19 4 21 11 1 20 -4 20 -13z
m40 12 c0 -2 -7 -6 -15 -10 -8 -3 -15 -1 -15 4 0 6 7 10 15 10 8 0 15 -2 15
-4z m-170 -66 c0 -5 -2 -10 -4 -10 -3 0 -8 5 -11 10 -3 6 -1 10 4 10 6 0 11
-4 11 -10z m116 -11 c30 13 31 -3 2 -23 -31 -22 -43 -20 -56 9 -11 24 -11 25
9 14 16 -8 28 -8 45 0z m1175 -36 c0 -15 2 -15 9 2 5 11 9 17 9 13 1 -3 4 -13
7 -22 9 -24 -28 -20 -44 4 -10 17 -10 20 3 20 8 0 15 -8 16 -17z m627 -14 c-3
-8 -7 -3 -11 10 -4 17 -3 21 5 13 5 -5 8 -16 6 -23z m-1878 2 c0 -5 8 -12 18
-14 9 -3 3 -5 -15 -6 -33 -1 -53 13 -31 22 20 8 28 8 28 -2z m1807 -13 c-3 -8
-6 -5 -6 6 -1 11 2 17 5 13 3 -3 4 -12 1 -19z m-1871 -23 c10 -8 14 -15 7 -15
-6 0 -14 4 -18 10 -3 5 -12 7 -20 3 -8 -3 -15 0 -15 6 0 15 23 14 46 -4z m72
-22 c-4 -22 -23 -43 -39 -43 -28 0 8 -16 44 -19 5 -1 6 -5 3 -10 -3 -4 -16 -7
-28 -4 -13 2 -30 -1 -38 -7 -13 -9 -13 -11 0 -20 8 -5 23 -7 34 -4 13 4 17 2
14 -7 -6 -18 -58 -25 -58 -8 0 6 -10 20 -22 31 -21 18 -21 20 -3 16 14 -2 25
8 40 38 11 22 26 39 33 36 6 -2 12 1 12 7 0 6 2 11 5 11 3 0 5 -8 3 -17z
m-128 -17 c0 -8 -7 -16 -15 -20 -9 -3 -15 0 -15 10 0 8 5 12 10 9 6 -3 10 -1
10 4 0 6 2 11 5 11 3 0 5 -6 5 -14z m24 -1 c-4 -8 -8 -15 -10 -15 -2 0 -4 7
-4 15 0 8 4 15 10 15 5 0 7 -7 4 -15z m1896 -40 c0 -8 -4 -15 -10 -15 -5 0
-10 7 -10 15 0 8 5 15 10 15 6 0 10 -7 10 -15z m37 -127 c-3 -7 -5 -2 -5 12 0
14 2 19 5 13 2 -7 2 -19 0 -25z m-1939 -25 c-10 -2 -26 -2 -35 0 -10 3 -2 5
17 5 19 0 27 -2 18 -5z"/>
<path d="M8784 3166 c-16 -12 -19 -27 -19 -83 l0 -68 73 -3 72 -3 0 31 c0 26
-4 30 -27 30 l-28 1 28 25 c16 13 30 36 32 49 3 29 -3 31 -34 9 -21 -15 -24
-15 -42 5 -23 25 -29 26 -55 7z m46 -71 c0 -18 -5 -25 -20 -25 -21 0 -24 8
-14 34 10 25 34 19 34 -9z"/>
<path d="M3027 3119 c-27 -63 -215 -473 -294 -644 -44 -93 -110 -240 -147
-325 -37 -85 -72 -163 -77 -172 -6 -12 -5 -16 4 -12 7 2 19 19 26 37 18 40 65
87 88 87 15 0 16 2 3 10 -12 7 -11 12 9 29 12 11 20 24 17 30 -4 6 5 16 20 24
16 9 23 17 16 21 -13 8 -5 36 11 36 6 0 20 11 32 26 17 21 32 29 66 33 4 1 9
14 12 30 4 17 23 47 44 68 20 21 36 41 35 45 -1 3 12 12 28 19 23 11 39 34 74
109 43 91 45 94 55 67 6 -15 18 -27 28 -27 13 0 14 -3 6 -8 -10 -6 -2 -34 31
-113 24 -57 67 -161 97 -231 29 -71 56 -128 60 -128 4 0 26 18 49 40 23 22 47
40 52 40 6 0 9 3 5 6 -3 3 5 17 19 29 l25 23 -187 439 c-103 241 -188 440
-190 442 -1 2 -9 -12 -17 -30z m70 -465 c-3 -3 -12 -4 -19 -1 -8 3 -5 6 6 6
11 1 17 -2 13 -5z"/>
<path d="M8833 2952 c-67 -33 -73 -39 -73 -67 0 -28 6 -34 75 -68 l75 -37 0
29 c0 16 -5 31 -10 33 -17 5 -19 78 -2 87 8 4 12 19 10 33 l-3 26 -72 -36z
m27 -62 c0 -21 -16 -26 -39 -11 -11 7 -10 11 5 20 27 15 34 14 34 -9z"/>
<path d="M8760 2725 c0 -69 3 -85 15 -85 10 0 15 10 15 30 l0 30 60 0 c57 0
60 1 60 25 0 22 -4 24 -57 27 -55 3 -58 4 -61 31 -2 15 -9 27 -18 27 -11 0
-14 -18 -14 -85z"/>
<path d="M8771 2606 c-18 -22 -10 -117 12 -130 25 -16 48 3 65 52 7 23 18 42
23 42 12 0 12 -37 -1 -45 -16 -10 -12 -55 5 -55 20 0 35 32 35 75 0 48 -16 75
-44 75 -23 0 -34 -16 -51 -77 -12 -44 -26 -24 -19 27 7 51 -2 64 -25 36z"/>
<path d="M2884 2357 c-9 -19 -25 -38 -35 -40 -13 -4 -16 -11 -12 -27 4 -16 3
-21 -5 -16 -7 4 -12 1 -12 -8 0 -9 -9 -21 -20 -28 -11 -7 -20 -24 -20 -38 0
-17 -3 -21 -9 -12 -7 11 -9 10 -14 -3 -4 -9 -1 -18 8 -21 8 -4 15 -10 15 -16
0 -5 -4 -6 -10 -3 -5 3 -10 2 -10 -4 0 -6 -11 -13 -23 -17 -18 -4 -23 -11 -20
-28 4 -17 -1 -25 -14 -28 -11 -3 -29 -24 -40 -46 -11 -23 -23 -39 -27 -35 -3
3 -6 -9 -7 -28 -1 -32 -2 -32 -9 -9 l-8 25 -1 -28 c-1 -16 -5 -26 -11 -22 -5
3 -10 -3 -10 -15 0 -12 -4 -18 -10 -15 -5 3 -10 -2 -10 -11 0 -10 -3 -14 -7
-11 -11 12 -42 -24 -35 -41 5 -15 4 -16 -13 -2 -10 8 -16 10 -12 3 4 -6 0 -18
-8 -27 -8 -8 -14 -21 -13 -28 2 -7 -3 -12 -9 -10 -7 1 -13 -7 -13 -19 0 -11
-4 -17 -10 -14 -6 3 -10 -4 -10 -17 0 -18 -2 -20 -10 -8 -8 12 -10 12 -10 1 0
-7 -11 -24 -24 -36 -25 -23 -94 -161 -194 -385 -33 -74 -73 -163 -89 -198
l-29 -63 -34 77 c-26 59 -35 73 -40 58 -7 -18 -7 -18 -12 1 -4 15 -6 12 -7
-10 -1 -23 -3 -27 -11 -15 -8 12 -10 8 -11 -15 l-1 -30 -8 30 -8 30 -2 -35
c-2 -33 -3 -33 -10 -10 -7 23 -8 23 -10 -10 l-2 -35 -7 30 -7 30 -7 -33 c-4
-19 -11 -31 -17 -27 -23 14 -7 -70 31 -162 22 -54 61 -151 87 -217 25 -65 48
-114 50 -107 2 6 8 9 13 5 5 -3 9 4 9 15 0 12 6 20 13 19 6 -2 11 3 9 10 -1 6
2 12 8 12 11 0 47 74 173 355 47 105 138 305 202 445 65 140 136 298 160 350
23 52 92 207 154 344 61 137 109 251 107 254 -3 2 -13 -11 -22 -31z"/>
<path d="M3443 2115 c-7 -8 -13 -19 -13 -25 0 -5 -7 -10 -15 -10 -8 0 -15 -9
-15 -19 0 -11 -9 -23 -20 -26 -11 -3 -20 -11 -20 -16 0 -6 -4 -8 -9 -5 -26 17
-15 -60 19 -129 5 -11 37 -85 69 -164 33 -79 62 -146 66 -149 3 -3 11 3 19 13
12 17 16 18 31 5 17 -14 16 -15 -6 -21 -35 -8 -29 -41 36 -193 58 -138 75
-170 75 -148 0 18 43 33 52 18 5 -6 8 -2 8 11 0 13 -3 22 -7 22 -22 -4 -44 2
-39 10 3 4 16 6 29 4 14 -3 40 3 58 13 l34 19 -27 3 c-27 3 -41 22 -17 22 8 0
8 5 -1 15 -11 13 -8 15 13 15 23 0 25 3 18 28 -11 37 -75 187 -100 237 -18 34
-20 35 -15 11 5 -20 4 -27 -5 -22 -6 4 -11 13 -11 21 0 7 -6 15 -12 17 -15 5
-38 -15 -38 -32 0 -6 -4 -9 -9 -5 -6 3 -14 -3 -20 -12 -5 -10 -13 -14 -18 -9
-4 4 16 30 46 57 48 43 53 51 44 71 -5 13 -15 37 -22 53 -107 256 -141 330
-153 332 -7 2 -19 -4 -25 -12z m287 -669 c0 -2 -7 -7 -16 -10 -8 -3 -12 -2 -9
4 6 10 25 14 25 6z"/>
<path d="M3825 1284 c5 -20 2 -22 -34 -20 -33 2 -38 0 -29 -12 7 -7 22 -12 34
-9 24 4 53 -8 42 -18 -3 -3 -15 -7 -26 -8 -13 -1 -18 -6 -14 -16 4 -11 -1 -13
-21 -9 -18 3 -27 1 -27 -7 0 -7 12 -15 28 -18 15 -3 36 -13 47 -21 18 -14 18
-15 3 -16 -10 0 -18 4 -18 9 0 5 -19 12 -42 16 -24 4 -46 13 -50 19 -6 8 -8 7
-8 -2 0 -10 -5 -10 -20 -2 -16 8 -18 8 -14 -4 3 -9 22 -19 42 -22 21 -4 31 -9
25 -11 -7 -3 -13 -11 -13 -19 0 -8 -4 -14 -10 -14 -5 0 -7 8 -4 18 5 13 4 14
-4 3 -6 -8 -7 -23 -2 -35 29 -77 64 -152 73 -158 12 -8 27 9 27 31 0 10 -3 11
-14 2 -12 -10 -17 -8 -26 8 -8 15 -8 21 0 21 6 0 8 5 5 10 -3 6 0 10 8 10 16
0 30 27 21 41 -3 5 4 9 15 9 12 0 21 -5 21 -11 0 -5 -5 -7 -10 -4 -7 4 -9 -3
-6 -21 3 -15 3 -31 -1 -37 -11 -18 -10 -86 1 -79 6 3 4 -5 -5 -18 -18 -27 -13
-47 43 -175 36 -84 31 -77 52 -69 14 5 15 9 4 15 -11 7 -11 12 0 30 7 11 11
23 8 26 -2 3 7 16 22 29 15 13 21 24 15 24 -7 0 -13 5 -13 11 0 5 4 8 9 4 5
-3 17 5 25 17 14 19 19 21 36 10 23 -14 30 -15 30 -4 0 16 -57 41 -81 35 -23
-5 -23 -4 6 22 17 15 35 30 42 33 17 10 5 62 -13 55 -8 -3 -11 -10 -7 -16 4
-6 1 -7 -8 -1 -8 5 -23 7 -34 6 -17 -2 -17 -1 -5 7 8 6 24 11 35 11 17 0 17 2
5 10 -8 5 -23 10 -33 10 -21 0 -49 -24 -40 -34 4 -3 1 -6 -5 -6 -20 0 -14 22
13 50 l25 27 -31 71 c-18 39 -36 69 -40 66 -5 -3 -9 0 -9 6 0 6 -4 8 -10 5 -5
-3 -10 -1 -10 4 0 6 -3 10 -7 10 -19 -3 -33 2 -33 12 0 13 42 8 52 -6 17 -22
7 15 -17 66 -14 30 -23 44 -20 33z m-35 -164 c0 -5 -7 -7 -15 -4 -8 4 -15 8
-15 10 0 2 7 4 15 4 8 0 15 -4 15 -10z m70 -24 c23 -13 21 -14 -30 -14 -64 1
-86 9 -50 19 38 11 53 10 80 -5z m30 -55 c0 -5 -9 -11 -20 -14 -22 -6 -28 8
-7 16 19 8 27 8 27 -2z m30 -291 c0 -5 -5 -10 -11 -10 -5 0 -7 5 -4 10 3 6 8
10 11 10 2 0 4 -4 4 -10z"/>
<path d="M3711 1204 c0 -11 3 -14 6 -6 3 7 2 16 -1 19 -3 4 -6 -2 -5 -13z"/>
<path d="M5595 1160 c3 -5 14 -10 23 -10 15 0 15 2 2 10 -20 13 -33 13 -25 0z"/>
<path d="M1861 1114 c0 -11 3 -14 6 -6 3 7 2 16 -1 19 -3 4 -6 -2 -5 -13z"/>
<path d="M5583 1122 c-8 -5 -8 -16 3 -41 8 -19 17 -31 21 -28 3 4 0 14 -8 23
-11 14 -11 18 4 29 9 7 17 15 17 19 0 8 -22 7 -37 -2z"/>
<path d="M1862 1065 c0 -16 2 -22 5 -12 2 9 2 23 0 30 -3 6 -5 -1 -5 -18z"/>
<path d="M4177 1008 c-10 -10 -22 -16 -27 -13 -6 4 -10 1 -10 -4 0 -6 7 -11
16 -11 13 0 13 -4 -3 -32 -10 -18 -21 -34 -25 -36 -5 -2 -8 -10 -8 -19 0 -12
-2 -12 -16 1 -18 18 -34 21 -34 6 0 -5 6 -10 14 -10 17 0 29 -27 14 -32 -6 -2
-12 -14 -13 -26 -1 -12 -9 -30 -19 -41 -10 -11 -16 -27 -12 -36 3 -9 1 -26 -5
-37 -8 -15 -8 -19 1 -13 6 4 24 35 40 69 46 99 110 249 107 251 -1 1 -10 -7
-20 -17z"/>
<path d="M4090 960 c0 -5 5 -10 10 -10 6 0 10 5 10 10 0 6 -4 10 -10 10 -5 0
-10 -4 -10 -10z"/>
<path d="M5640 958 c1 -7 10 -29 21 -48 11 -19 17 -26 13 -15 -4 11 -9 32 -12
48 -4 27 -22 39 -22 15z"/>
<path d="M4030 929 c0 -5 9 -9 20 -9 11 0 20 2 20 4 0 2 -9 6 -20 9 -11 3 -20
1 -20 -4z"/>
<path d="M5680 861 c0 -6 4 -13 10 -16 6 -3 7 1 4 9 -7 18 -14 21 -14 7z"/>
<path d="M3940 721 c0 -5 7 -12 16 -15 24 -9 28 -7 14 9 -14 17 -30 20 -30 6z"/>
<path d="M5811 554 c0 -11 3 -14 6 -6 3 7 2 16 -1 19 -3 4 -6 -2 -5 -13z"/>
<path d="M5856 473 c-6 -14 -5 -15 5 -6 7 7 10 15 7 18 -3 3 -9 -2 -12 -12z"/>
</g>
</svg>
